<svg width="196" height="76" viewBox="0 0 196 76" fill="none" xmlns="http://www.w3.org/2000/svg">
<path d="M47.3054 8.75167C47.0962 7.50172 46.8246 6.3145 46.504 5.18999C46.2235 4.24469 45.9029 3.29043 45.5467 2.31376C45.186 1.34158 44.7942 0.570999 44.3668 0.00202515C44.0284 -0.0114152 43.6811 0.0423445 43.3249 0.154347C42.9687 0.26635 42.6169 0.391794 42.2652 0.526197C41.8689 0.67404 41.5038 0.835327 41.1609 1.01901C40.6088 1.30126 40.1012 1.59695 39.6515 1.90159C38.7343 2.46609 38.0442 3.0709 37.5811 3.72052C38.3113 5.13175 38.9703 6.75354 39.5669 8.58143C40.1591 10.4138 40.6578 12.1476 41.0585 13.7828C41.5261 15.6914 41.9357 17.6447 42.2785 19.6294C42.6793 22.0397 42.9642 24.777 43.1423 27.8459C43.3204 30.9148 43.3605 34.0643 43.267 37.2944C43.1735 40.5291 42.9687 43.701 42.657 46.8192C42.3409 49.9373 41.9179 52.7553 41.388 55.2776C40.8537 57.7999 40.2037 59.8787 39.4289 61.5184C38.6542 63.1581 37.7726 64.0989 36.7797 64.3453C35.9203 64.5604 35.0031 64.0004 34.0325 62.6742C33.0618 61.3481 32.1179 59.3634 31.2051 56.7202C30.2923 54.0769 29.4597 50.8333 28.7117 46.9894C27.9592 43.1499 27.416 38.7818 27.0821 33.8985C27.1444 32.0034 27.2112 30.0187 27.278 27.9534C27.3448 25.8881 27.3626 23.8541 27.3314 21.8605C27.2958 19.8668 27.2334 18.0031 27.1444 16.2603C27.0509 14.522 26.9084 13.0526 26.708 11.8474C26.5299 10.929 26.2405 10.2256 25.8353 9.75074C25.4302 9.27137 24.9092 9.11009 24.277 9.26689C23.382 9.5357 22.4692 10.4048 21.5342 11.8653C20.5992 13.3259 19.9803 15.4002 19.6775 18.0793C19.5395 19.4636 19.5217 20.9555 19.6241 22.5459C19.7265 24.1364 19.8912 25.7358 20.1183 27.3441C20.3454 28.9525 20.6214 30.525 20.9509 32.0572C21.2804 33.5939 21.6099 35.0409 21.9438 36.4074C21.8503 37.5901 21.739 38.9073 21.6188 40.3588C21.4941 41.8149 21.365 43.2799 21.227 44.7628C21.0889 46.2457 20.9376 47.6928 20.7817 49.1085C20.6259 50.5242 20.47 51.801 20.3231 52.9479C20.0471 54.7534 19.7309 56.5947 19.3747 58.4674C19.0185 60.3401 18.6133 62.056 18.1592 63.6196C17.7006 65.1786 17.1974 66.4868 16.6409 67.5441C16.0843 68.5969 15.4654 69.2107 14.7886 69.381C13.3861 69.7304 11.9657 68.6238 10.5231 66.0612C9.08048 63.5031 7.85159 59.3814 6.84086 53.6961C6.3867 50.8647 6.09729 47.7913 5.97707 44.4671C5.85685 41.1429 5.86131 37.8365 5.99043 34.5481C6.11956 31.2597 6.34664 28.1281 6.67167 25.1533C6.9967 22.1786 7.37517 19.6249 7.81152 17.4879C7.98516 16.4306 8.2167 15.4315 8.51502 14.4907C8.74209 13.6619 9.0137 12.8599 9.32537 12.0804C9.63705 11.3053 10.0022 10.696 10.4251 10.2525C10.109 10.1405 9.75727 10.0823 9.37435 10.0778C8.99143 10.0778 8.61297 10.1002 8.23895 10.1405C7.82042 10.1988 7.38407 10.2794 6.93437 10.3914C6.39116 10.5258 5.83014 10.7274 5.24686 10.9917C4.66357 11.2561 4.13373 11.5473 3.66176 11.8564C3.18534 12.17 2.78906 12.497 2.46403 12.842C2.13899 13.187 1.93863 13.4916 1.85848 13.7515C1.81396 13.9576 1.7071 14.6565 1.54681 15.8571C1.38652 17.0533 1.19506 18.6348 0.981341 20.5926C0.767619 22.5504 0.558344 24.786 0.362433 27.2948C0.162069 29.8037 0.0463063 32.4514 0.010686 35.2336C-0.0249342 38.0157 0.0284964 40.874 0.170977 43.804C0.313458 46.734 0.625133 49.5654 1.10155 52.2938C1.77834 56.42 2.65104 60.0265 3.71964 63.1133C4.78825 66.2001 5.937 68.7358 7.17035 70.725C8.39925 72.7097 9.71274 74.1478 11.1019 75.0304C12.4911 75.913 13.8447 76.1952 15.1537 75.8682C16.4628 75.5411 17.6471 74.6585 18.7113 73.2115C19.771 71.7644 20.7194 69.9634 21.5565 67.7995C22.3935 65.6356 23.1193 63.2253 23.7382 60.5641C24.3571 57.9029 24.8691 55.1701 25.2877 52.3655C25.724 54.3323 26.294 56.4559 26.9975 58.7452C27.701 61.0301 28.5514 63.1223 29.5443 65.0218C30.5372 66.9214 31.6726 68.4267 32.9505 69.5288C34.2284 70.6354 35.6576 70.9893 37.2427 70.5996C38.7343 70.2277 40.1324 69.1346 41.437 67.3156C42.7416 65.4967 43.9037 63.1088 44.9278 60.1519C45.9519 57.1951 46.8157 53.7857 47.5236 49.9194C48.2316 46.053 48.7035 41.8821 48.9484 37.4064C49.1933 32.9308 49.1889 28.267 48.9306 23.4061C48.6679 18.5452 48.1292 13.6619 47.3054 8.75167Z" fill="black"/>
<path d="M144.954 13.3343C144.86 12.9491 144.691 12.7027 144.446 12.5907C144.206 12.4831 143.921 12.5055 143.6 12.6579C143.28 12.8102 143.004 13.1103 142.777 13.5494C142.14 14.8665 141.316 16.4435 140.305 18.2894C139.295 20.1307 138.159 21.9451 136.895 23.7327C135.63 25.5202 134.281 27.1062 132.852 28.4995C131.418 29.8928 129.935 30.7799 128.399 31.1607C127.678 31.3399 126.939 31.4161 126.186 31.3847C125.434 31.3533 124.73 31.1652 124.071 30.8247C123.412 30.4842 122.807 29.969 122.255 29.288C121.703 28.607 121.266 27.7021 120.941 26.5731C121.498 25.9055 122.148 25.1529 122.905 24.3106C123.657 23.4728 124.45 22.5903 125.274 21.6584C126.022 20.7982 126.81 19.8529 127.638 18.827C128.466 17.801 129.214 16.6989 129.882 15.5206C130.55 14.3424 131.071 13.079 131.436 11.735C131.801 10.3909 131.877 8.99761 131.667 7.55053C131.445 6.25578 130.844 5.27015 129.864 4.59814C128.885 3.92612 127.536 3.80069 125.817 4.2263C124.009 4.67431 122.353 5.69129 120.848 7.26829C119.343 8.84976 118.087 10.6776 117.09 12.7609C116.093 14.8441 115.358 17.0394 114.895 19.3511C114.485 21.3985 114.365 23.2847 114.534 25.014C114.507 25.0678 114.481 25.1215 114.454 25.1798C113.893 26.3087 113.247 27.496 112.522 28.737C111.796 29.9779 111.017 31.1517 110.184 32.2494C109.351 33.3515 108.461 34.3057 107.508 35.1211C106.555 35.9365 105.562 36.4741 104.52 36.7295C104.293 36.7877 104.146 36.8101 104.071 36.8056C103.999 36.8012 103.959 36.7877 103.951 36.7608C103.946 36.7384 103.915 36.7205 103.866 36.7071C103.817 36.6981 103.692 36.6892 103.501 36.6892C104.093 35.3854 104.614 34.0011 105.073 32.5361C105.527 31.0711 105.887 29.6061 106.155 28.1411C106.417 26.6761 106.564 25.2649 106.591 23.9074C106.618 22.5499 106.515 21.2955 106.279 20.1486C106.065 19.0913 105.785 18.0385 105.433 16.9946C105.081 15.9507 104.618 15.0368 104.044 14.2662C103.47 13.4912 102.793 12.9267 102.009 12.5638C101.226 12.2054 100.313 12.1516 99.2753 12.4114C98.5051 12.6041 97.7481 12.9715 96.9957 13.5225C96.2432 14.0736 95.5397 14.7187 94.8807 15.4579C94.2217 16.2016 93.5939 17.008 92.9928 17.8817C92.3917 18.7553 91.8664 19.6334 91.4122 20.516C91.3677 20.3368 91.3365 20.162 91.3187 19.9963C91.3009 19.8305 91.2875 19.6289 91.2786 19.3915C91.1361 17.8369 90.8334 16.7527 90.3747 16.1434C89.9117 15.5341 89.0613 15.337 87.819 15.5475C87.3114 15.6282 86.8261 15.7939 86.363 16.0538C85.9311 16.2599 85.4681 16.5556 84.9649 16.9453C84.4618 17.3351 83.9943 17.8279 83.5624 18.4148C84.5197 18.9972 85.0851 19.835 85.2588 20.9237C85.3122 21.2552 85.3523 21.627 85.3879 22.0302C85.054 22.5141 84.6577 23.0383 84.1946 23.6117C83.4555 24.5167 82.6407 25.4351 81.7413 26.358C80.8419 27.2809 79.898 28.1814 78.9139 29.0506C77.9299 29.9242 76.9682 30.6903 76.0287 31.3578C75.9842 30.9815 75.9218 30.529 75.8372 29.9959C75.7526 29.4627 75.668 29.0147 75.579 28.6474C75.1426 26.8732 74.4792 25.4351 73.5843 24.3285C72.6893 23.2264 71.7231 22.3662 70.6857 21.757C69.6482 21.1477 68.642 20.7445 67.658 20.5563C66.6739 20.3681 65.8858 20.3233 65.2892 20.4219C65.1423 20.4129 65.0042 20.395 64.884 20.3771C64.7594 20.3592 64.6302 20.3681 64.4967 20.3995C63.6818 20.6011 62.8715 20.9102 62.0656 21.3313C61.2552 21.748 60.5295 22.2453 59.8749 22.8143C59.2249 23.3877 58.6906 24.0373 58.2676 24.7676C57.849 25.4978 57.5952 26.2863 57.5151 27.1241C56.9674 28.2262 56.5489 29.3911 56.2506 30.6231C55.9523 31.8551 55.7564 33.0603 55.6628 34.243C55.5693 35.4258 55.5471 36.5637 55.6005 37.6613C55.6539 38.759 55.7875 39.7401 55.9968 40.6003C56.2996 41.8278 56.678 43.1315 57.1366 44.5159C57.5952 45.8958 58.2275 47.1144 59.0379 48.1672C59.8482 49.22 60.8812 50.013 62.1368 50.5461C63.3924 51.0793 64.9508 51.1151 66.8031 50.6537C68.3837 50.2594 69.7684 49.5919 70.9484 48.6466C72.1283 47.7013 73.1212 46.5499 73.9138 45.1969C74.7063 43.8394 75.3029 42.3162 75.7037 40.6272C76.1044 38.9337 76.3181 37.1685 76.3448 35.3317C77.5915 34.5387 78.8472 33.5038 80.1161 32.2225C81.3851 30.9412 82.5338 29.6688 83.5668 28.401C84.2881 27.5139 84.9249 26.6851 85.4992 25.9055C85.526 27.4422 85.5438 29.0685 85.5616 30.7978C85.5794 32.7243 85.6016 34.5253 85.6284 36.2098C85.6239 38.1407 85.615 40.0716 85.6106 42.0026C85.5838 44.0365 85.5749 46.5454 85.5883 49.5336C85.5482 52.1007 85.526 55.2906 85.526 59.1031C85.526 62.9157 85.4903 67.4093 85.4191 72.5927C85.7219 73.0497 86.0513 73.4126 86.4075 73.6859C86.7637 73.9592 87.1021 74.1742 87.4316 74.3355C87.8146 74.5281 88.1841 74.6536 88.5314 74.7118C89.5243 74.8507 90.348 74.7432 91.0026 74.3848C91.6615 74.0264 91.9732 73.202 91.942 71.9073C91.6081 67.2121 91.3543 63.0187 91.1896 59.3226C91.0248 55.6221 90.8912 52.486 90.7844 49.9055C90.6686 46.8948 90.6152 44.2292 90.6196 41.913C90.6063 41.6755 90.5974 41.4829 90.5885 41.344C90.5751 41.2006 90.5707 41.0349 90.5707 40.8422C90.8289 41.3081 91.1361 41.7786 91.4879 42.24C91.8441 42.7059 92.2537 43.1091 92.7212 43.4541C93.1887 43.7946 93.7364 44.0231 94.3598 44.1306C94.9876 44.2381 95.6822 44.2023 96.4524 44.0096C97.2673 43.808 98.0598 43.4272 98.8345 42.8762C99.6093 42.3206 100.326 41.6262 100.985 40.7884C101.332 40.8467 101.635 40.9049 101.889 40.9632C102.143 41.0214 102.405 41.0752 102.686 41.1289C102.962 41.1782 103.287 41.1827 103.661 41.1424C104.035 41.0976 104.512 41.0035 105.099 40.8557C106.319 40.551 107.495 39.9103 108.621 38.9337C109.748 37.957 110.798 36.8146 111.774 35.5109C112.749 34.2072 113.639 32.8049 114.445 31.2996C114.819 30.6007 115.166 29.9197 115.496 29.2522C115.79 30.0317 116.137 30.7396 116.547 31.3578C117.504 32.8094 118.577 33.916 119.77 34.6821C120.964 35.4482 122.197 35.9231 123.466 36.1157C124.735 36.3083 125.866 36.277 126.863 36.0306C128.76 35.5602 130.603 34.6193 132.393 33.2081C134.179 31.8014 135.853 30.1168 137.411 28.1635C138.97 26.2102 140.377 24.0732 141.632 21.7614C142.888 19.4497 143.948 17.1245 144.811 14.7859C144.998 14.2035 145.047 13.7241 144.954 13.3343ZM70.5922 41.0707C70.3562 41.9757 70.0445 42.8 69.6527 43.5482C69.2609 44.2964 68.7755 44.9505 68.1923 45.5015C67.609 46.0571 66.9099 46.4334 66.0996 46.635C65.3783 46.8142 64.7416 46.7694 64.1939 46.4916C63.6462 46.2183 63.1609 45.8062 62.7424 45.2596C62.3194 44.713 61.9676 44.0544 61.6827 43.2794C61.3977 42.5088 61.1528 41.7114 60.9525 40.8915C60.7521 40.0716 60.6319 39.1891 60.5873 38.2303C60.5428 37.276 60.5428 36.2859 60.5784 35.2645C61.647 36.6892 62.9294 37.7554 64.421 38.4722C65.9126 39.1846 67.5199 39.3324 69.2386 38.9023C69.5993 38.8127 69.9243 38.7186 70.2137 38.6246C70.5031 38.5305 70.797 38.4185 71.1042 38.293C70.9929 39.2473 70.8237 40.1702 70.5922 41.0707ZM70.5966 34.1937C70.374 34.2744 70.1514 34.3416 69.9287 34.3953C68.5262 34.7448 67.3774 34.7985 66.4825 34.5656C65.5875 34.3326 64.8796 33.9384 64.3586 33.3918C63.8421 32.8452 63.437 32.1866 63.152 31.4116C62.867 30.641 62.6355 29.8883 62.4574 29.1581C62.3461 28.7056 62.306 28.2531 62.3416 27.8096C62.8092 26.7792 63.3791 25.9235 64.0514 25.2514C64.7237 24.5794 65.4896 24.1359 66.3489 23.9208C66.8921 23.7864 67.4131 23.9119 67.9162 24.2927C68.4149 24.6735 68.8824 25.2111 69.3187 25.8966C69.7506 26.5865 70.1247 27.375 70.4363 28.2621C70.748 29.1491 70.9662 30.0362 71.0909 30.9233C71.1799 31.2861 71.2244 31.7207 71.2333 32.227C71.2378 32.7332 71.2467 33.2977 71.2556 33.9204C71.033 34.0235 70.8148 34.1176 70.5966 34.1937ZM101.657 25.2111C101.506 26.4566 101.261 27.6976 100.918 28.943C100.575 30.1885 100.157 31.4116 99.6627 32.6212C99.1685 33.8308 98.6832 34.9285 98.2067 35.9141C96.9778 35.5915 95.9137 35.2645 95.0187 34.9329C94.1193 34.6014 93.4247 34.4984 92.9261 34.6193C92.4719 34.7313 92.04 34.9105 91.6215 35.1614C91.2029 35.4123 90.8467 35.717 90.5528 36.0799C90.5217 34.5925 90.5083 33.3067 90.5039 32.218C90.4994 31.1338 90.5172 30.1751 90.5528 29.3463C91.6215 26.2819 92.7791 23.7148 94.0214 21.6449C95.2636 19.5751 96.586 18.3655 97.9886 18.0205C98.937 17.7831 99.7117 18.0026 100.308 18.6746C100.905 19.3467 101.324 20.3771 101.568 21.7614C101.778 22.8187 101.804 23.9701 101.657 25.2111ZM120.403 17.0439C120.674 15.4086 121.044 13.9884 121.516 12.7878C121.988 11.5871 122.531 10.6194 123.141 9.88915C123.751 9.15889 124.33 8.72432 124.873 8.58992C125.372 8.46447 125.804 8.56304 126.169 8.8856C126.534 9.20369 126.779 9.8085 126.899 10.6956C127.01 11.5378 126.819 12.622 126.329 13.9481C125.839 15.2742 124.806 16.9319 123.234 18.9166C122.722 19.5751 122.206 20.1979 121.68 20.7848C121.155 21.3761 120.67 21.9406 120.229 22.4827C120.073 20.4936 120.131 18.6836 120.403 17.0439Z" fill="black"/>
<path d="M109 74.7244V62.1279H113.665V63.8288H110.563V67.5276H113.266V69.2285H110.563V72.9271H113.665V74.7324H109V74.7244Z" fill="black"/>
<path d="M119.748 65.7629H118.186V65.3537C118.186 64.9445 118.098 64.5835 117.93 64.2866C117.763 63.9817 117.476 63.8373 117.077 63.8373C116.862 63.8373 116.687 63.8855 116.551 63.9817C116.415 64.078 116.312 64.1903 116.232 64.3348C116.152 64.4872 116.096 64.6637 116.065 64.8563C116.033 65.0488 116.017 65.2574 116.017 65.466C116.017 65.7147 116.025 65.9233 116.041 66.0838C116.057 66.2523 116.096 66.3967 116.152 66.5251C116.208 66.6535 116.304 66.7658 116.423 66.8621C116.543 66.9583 116.702 67.0546 116.91 67.1429L118.106 67.6884C118.457 67.8409 118.736 68.0254 118.951 68.226C119.166 68.4346 119.334 68.6673 119.461 68.9401C119.573 69.2209 119.653 69.5418 119.693 69.9029C119.733 70.2639 119.756 70.6731 119.756 71.1304C119.756 71.6599 119.709 72.1574 119.621 72.6067C119.525 73.064 119.382 73.4491 119.174 73.762C118.959 74.091 118.68 74.3477 118.329 74.5403C117.978 74.7248 117.556 74.8211 117.053 74.8211C116.679 74.8211 116.32 74.7408 115.993 74.5884C115.666 74.436 115.387 74.2193 115.148 73.9546C114.908 73.6898 114.725 73.3689 114.589 73.0078C114.454 72.6468 114.382 72.2536 114.382 71.8284V71.1545H115.945V71.7241C115.945 72.0531 116.033 72.3499 116.2 72.6147C116.368 72.8795 116.655 73.0159 117.053 73.0159C117.316 73.0159 117.524 72.9677 117.675 72.8795C117.827 72.7912 117.938 72.6628 118.018 72.5024C118.098 72.3339 118.146 72.1413 118.162 71.9087C118.178 71.676 118.186 71.4192 118.186 71.1384C118.186 70.8095 118.178 70.5367 118.154 70.3281C118.13 70.1195 118.09 69.943 118.034 69.8146C117.962 69.6862 117.867 69.5819 117.747 69.4937C117.627 69.4134 117.476 69.3252 117.277 69.2289L116.152 68.6994C115.474 68.3784 115.02 67.9613 114.789 67.4317C114.558 66.9102 114.446 66.2523 114.446 65.458C114.446 64.9846 114.502 64.5353 114.613 64.1101C114.725 63.6849 114.892 63.3238 115.116 63.0109C115.331 62.706 115.602 62.4573 115.937 62.2728C116.272 62.0883 116.671 62 117.125 62C117.516 62 117.867 62.0802 118.194 62.2487C118.52 62.4172 118.792 62.6338 119.031 62.9066C119.501 63.4763 119.74 64.1181 119.74 64.8483V65.7629H119.748Z" fill="black"/>
<path d="M121.942 74.7244V63.8288H120.132V62.1279H125.323V63.8288H123.512V74.7244H121.942Z" fill="black"/>
<path d="M131.08 62.1367V71.9009C131.08 72.3101 131.016 72.6952 130.888 73.0402C130.761 73.3852 130.577 73.6981 130.346 73.9709C130.107 74.2437 129.836 74.4523 129.533 74.6048C129.23 74.7572 128.895 74.8374 128.552 74.8374C128.209 74.8374 127.882 74.7572 127.579 74.6048C127.276 74.4523 127.005 74.2357 126.774 73.9709C126.535 73.6981 126.351 73.3933 126.224 73.0402C126.096 72.6872 126.024 72.3101 126.024 71.9009V62.1367H127.587V71.7244C127.587 72.1737 127.683 72.5027 127.866 72.7113C128.05 72.9199 128.281 73.0322 128.56 73.0322C128.839 73.0322 129.07 72.9279 129.254 72.7113C129.437 72.5027 129.533 72.1657 129.533 71.7244V62.1367H131.08Z" fill="black"/>
<path d="M132.555 74.7244V62.1279H134.875C135.776 62.1279 136.462 62.4087 136.924 62.9784C137.387 63.548 137.626 64.3504 137.626 65.3853V71.2744C137.626 72.4538 137.379 73.3203 136.884 73.8819C136.39 74.4435 135.672 74.7244 134.74 74.7244H132.555ZM134.118 63.8369V73.0315H134.843C135.282 73.0315 135.593 72.9031 135.776 72.6544C135.96 72.3976 136.055 72.0045 136.055 71.4589V65.3934C136.055 64.8959 135.967 64.5189 135.792 64.2461C135.617 63.9733 135.298 63.8369 134.843 63.8369H134.118Z" fill="black"/>
<path d="M139.141 74.7244V62.1279H140.704V74.7244H139.141Z" fill="black"/>
<path d="M142.139 65.1053C142.139 64.5999 142.219 64.1506 142.371 63.7574C142.522 63.3643 142.729 63.0434 142.985 62.7866C143.232 62.5379 143.511 62.3534 143.822 62.217C144.133 62.0886 144.452 62.0244 144.763 62.0244C145.082 62.0244 145.393 62.0886 145.704 62.217C146.015 62.3454 146.302 62.5379 146.557 62.7866C146.804 63.0434 147.003 63.3723 147.155 63.7574C147.306 64.1425 147.386 64.5918 147.386 65.1053V71.7566C147.386 72.2861 147.306 72.7434 147.155 73.1205C147.003 73.4976 146.804 73.8105 146.557 74.0592C146.302 74.316 146.015 74.5165 145.704 74.6449C145.393 74.7733 145.074 74.8375 144.763 74.8375C144.444 74.8375 144.133 74.7733 143.822 74.6449C143.511 74.5165 143.232 74.324 142.985 74.0592C142.729 73.8105 142.522 73.4976 142.371 73.1205C142.219 72.7434 142.139 72.2861 142.139 71.7566V65.1053ZM143.702 71.7566C143.702 72.1898 143.806 72.5107 144.013 72.7194C144.221 72.928 144.468 73.0322 144.755 73.0322C145.042 73.0322 145.289 72.928 145.496 72.7194C145.704 72.5107 145.807 72.1898 145.807 71.7566V65.1053C145.807 64.6721 145.704 64.3512 145.496 64.1426C145.289 63.9339 145.034 63.8296 144.755 63.8296C144.476 63.8296 144.221 63.9339 144.013 64.1426C143.806 64.3512 143.702 64.6721 143.702 65.1053V71.7566Z" fill="black"/>
<path d="M156.604 71.1388V71.917C156.604 72.3021 156.54 72.6712 156.413 73.0242C156.285 73.3692 156.11 73.6821 155.886 73.9549C155.663 74.2277 155.4 74.4443 155.097 74.5968C154.794 74.7572 154.467 74.8375 154.124 74.8375C153.829 74.8375 153.526 74.7893 153.215 74.6931C152.904 74.5968 152.633 74.4363 152.386 74.1956C152.139 73.9629 151.939 73.6581 151.78 73.281C151.62 72.9039 151.541 72.4385 151.541 71.8609V64.9288C151.541 64.5196 151.604 64.1345 151.724 63.7815C151.844 63.4285 152.019 63.1236 152.242 62.8588C152.465 62.6021 152.737 62.3935 153.048 62.2491C153.359 62.1046 153.701 62.0244 154.084 62.0244C154.818 62.0244 155.416 62.3052 155.878 62.8588C156.102 63.1316 156.277 63.4526 156.405 63.8216C156.532 64.1907 156.596 64.5999 156.596 65.0331V65.7392H155.033V65.1374C155.033 64.7844 154.945 64.4795 154.77 64.2148C154.594 63.958 154.363 63.8216 154.06 63.8216C153.67 63.8216 153.414 63.958 153.287 64.2388C153.159 64.5196 153.095 64.8646 153.095 65.2899V71.7245C153.095 72.0935 153.167 72.3984 153.303 72.6471C153.438 72.8959 153.685 73.0162 154.044 73.0162C154.148 73.0162 154.26 72.9921 154.371 72.952C154.491 72.9119 154.602 72.8397 154.698 72.7514C154.794 72.6551 154.866 72.5268 154.929 72.3663C154.993 72.2059 155.025 71.9972 155.025 71.7485V71.1307H156.604V71.1388Z" fill="black"/>
<path d="M157.879 74.7244V62.1279H160.399C162.241 62.1279 163.166 63.3635 163.166 65.8266C163.166 66.5728 163.07 67.1986 162.863 67.7201C162.664 68.2416 162.313 68.6588 161.81 68.9797L163.501 74.7244H161.842L160.383 69.3488H159.45V74.7244H157.879ZM159.442 63.8369V67.7602H160.335C160.614 67.7602 160.83 67.7121 160.997 67.6238C161.165 67.5356 161.292 67.4072 161.38 67.2467C161.46 67.0782 161.515 66.8777 161.547 66.637C161.579 66.3963 161.595 66.1155 161.595 65.7945C161.595 65.4736 161.579 65.1928 161.547 64.9521C161.515 64.7114 161.452 64.5028 161.364 64.3263C161.173 63.9973 160.798 63.8288 160.256 63.8288H159.442V63.8369Z" fill="black"/>
<path d="M164.418 74.7244V62.1279H169.083V63.8288H165.981V67.5276H168.684V69.2285H165.981V72.9271H169.083V74.7324H164.418V74.7244Z" fill="black"/>
<path d="M169.394 74.7244L171.834 62.1279H173.142L175.582 74.7244H174.019L173.556 72.0205H171.419L170.957 74.7244H169.394ZM173.261 70.3276L172.496 65.7624H172.464L171.698 70.3276H173.261Z" fill="black"/>
<path d="M176.538 74.7244V63.8288H174.728V62.1279H179.919V63.8288H178.109V74.7244H176.538Z" fill="black"/>
<path d="M180.652 74.7244V62.1279H182.215V74.7244H180.652Z" fill="black"/>
<path d="M189.049 62.1367L186.808 74.7331H185.429L183.204 62.1367H184.862L186.106 70.9301H186.138L187.398 62.1367H189.049Z" fill="black"/>
<path d="M189.894 65.1053C189.894 64.5999 189.974 64.1506 190.126 63.7574C190.277 63.3643 190.484 63.0434 190.74 62.7866C190.987 62.5379 191.266 62.3534 191.577 62.217C191.888 62.0886 192.207 62.0244 192.518 62.0244C192.837 62.0244 193.148 62.0886 193.459 62.217C193.77 62.3454 194.057 62.5379 194.312 62.7866C194.559 63.0434 194.758 63.3723 194.91 63.7574C195.061 64.1425 195.141 64.5918 195.141 65.1053V71.7566C195.141 72.2861 195.061 72.7434 194.91 73.1205C194.758 73.4976 194.559 73.8105 194.312 74.0592C194.057 74.316 193.77 74.5165 193.459 74.6449C193.148 74.7733 192.829 74.8375 192.518 74.8375C192.199 74.8375 191.888 74.7733 191.577 74.6449C191.266 74.5165 190.987 74.324 190.74 74.0592C190.484 73.8105 190.277 73.4976 190.126 73.1205C189.974 72.7434 189.894 72.2861 189.894 71.7566V65.1053ZM191.457 71.7566C191.457 72.1898 191.561 72.5107 191.768 72.7194C191.975 72.928 192.223 73.0322 192.51 73.0322C192.797 73.0322 193.044 72.928 193.251 72.7194C193.459 72.5107 193.562 72.1898 193.562 71.7566V65.1053C193.562 64.6721 193.459 64.3512 193.251 64.1426C193.044 63.9339 192.789 63.8296 192.51 63.8296C192.231 63.8296 191.975 63.9339 191.768 64.1426C191.561 64.3512 191.457 64.6721 191.457 65.1053V71.7566Z" fill="black"/>
</svg>
