<svg width="53" height="54" viewBox="0 0 53 54" fill="none" xmlns="http://www.w3.org/2000/svg">
<path fill-rule="evenodd" clip-rule="evenodd" d="M45.2929 8.5589C40.3228 3.60652 33.7129 0.877784 26.6709 0.875C12.1609 0.875 0.351536 12.6279 0.345729 27.0741C0.343794 31.6919 1.55605 36.1995 3.85962 40.1727L0.125 53.75L14.0803 50.1066C17.9253 52.1939 22.2544 53.2939 26.6603 53.2957H26.6712C41.1797 53.2957 52.9901 41.5413 52.996 27.095C52.9988 20.0942 50.2631 13.5113 45.2929 8.5589ZM26.6712 48.8705H26.6622C22.7361 48.869 18.8852 47.8192 15.5259 45.8351L14.7268 45.3631L6.44565 47.5252L8.65609 39.4891L8.13578 38.6653C5.94555 35.198 4.78871 31.1904 4.79043 27.0758C4.79523 15.0686 14.6108 5.30014 26.6798 5.30014C32.524 5.30235 38.0177 7.57052 42.1488 11.6868C46.2798 15.803 48.5536 21.2745 48.5513 27.0933C48.5463 39.1013 38.7309 48.8705 26.6712 48.8705ZM38.6729 32.5607C38.0151 32.233 34.7812 30.6492 34.1783 30.4307C33.5754 30.2123 33.1369 30.1031 32.6983 30.7585C32.2599 31.4138 30.9993 32.8885 30.6155 33.3253C30.2319 33.7623 29.8482 33.817 29.1904 33.4892C28.5326 33.1615 26.4132 32.4703 23.9008 30.2399C21.9455 28.5041 20.6252 26.36 20.2416 25.7047C19.8579 25.0493 20.2008 24.6949 20.53 24.3686C20.8259 24.0752 21.1878 23.6039 21.5167 23.2216C21.8455 22.8393 21.9551 22.5663 22.1744 22.1294C22.3937 21.6924 22.284 21.3101 22.1196 20.9824C21.9551 20.6547 20.6397 17.4324 20.0915 16.1216C19.5576 14.845 19.0153 15.0177 18.6116 14.9978C18.2283 14.9788 17.7894 14.9747 17.3509 14.9747C16.9124 14.9747 16.1998 15.1386 15.5968 15.7939C14.9939 16.4494 13.2948 18.0332 13.2948 21.2555C13.2948 24.4778 15.6517 27.5908 15.9806 28.0277C16.3094 28.4647 20.6188 35.0773 27.2171 37.9131C28.7865 38.5875 30.0117 38.9903 30.967 39.2922C32.5428 39.7903 33.9767 39.72 35.1101 39.5515C36.3738 39.3636 39.0017 37.9677 39.5499 36.4385C40.098 34.9093 40.098 33.5985 39.9336 33.3254C39.7692 33.0523 39.3307 32.8885 38.6729 32.5607Z" fill="white"/>
</svg>
